<svg width="529" height="103" viewBox="0 0 529 103" fill="none" xmlns="http://www.w3.org/2000/svg">
<path d="M126 47.1217L100.149 4.00182L52.5221 80.9979L105.044 81L126 47.1217Z" fill="#A3E635" fill-opacity="0.95"/>
<path d="M73.4779 47.1199L47.6271 4L0 80.9961L52.5221 80.9979L73.4779 47.1199Z" fill="#CBFF6B"/>
<path d="M180.598 80.8185C173.823 80.8185 168.618 78.6434 164.981 74.2933C161.344 69.8719 159.525 63.2398 159.525 54.397V20.3806H176.64V55.2527C176.64 58.3905 177.532 60.8865 179.315 62.7406C181.097 64.5947 183.486 65.5218 186.482 65.5218C189.548 65.5218 192.044 64.5591 193.969 62.6336C195.895 60.7082 196.858 58.1052 196.858 54.8248V20.3806H213.973V79H200.388V54.29H201.564C201.564 60.209 200.78 65.1652 199.211 69.1588C197.713 73.081 195.467 76.0048 192.472 77.9303C189.477 79.8558 185.768 80.8185 181.347 80.8185H180.598ZM225.475 79V20.3806H239.061V45.5185H238.098C238.098 39.5282 238.847 34.5362 240.344 30.5427C241.913 26.5492 244.266 23.554 247.404 21.5572C250.542 19.5605 254.357 18.5621 258.85 18.5621H259.599C266.445 18.5621 271.651 20.8084 275.216 25.3012C278.853 29.7226 280.672 36.4617 280.672 45.5185V79H263.557V44.5557C263.557 41.418 262.63 38.8507 260.775 36.8539C258.921 34.8571 256.425 33.8588 253.287 33.8588C250.078 33.8588 247.475 34.8928 245.479 36.9609C243.553 38.9576 242.591 41.5962 242.591 44.8766V79H225.475ZM291.726 79V0.912064H308.949V79H291.726ZM284.773 13.5345V0.912064H308.949V13.5345H284.773ZM349.001 81.0324C343.867 81.0324 339.303 80.248 335.309 78.6791C331.316 77.0389 327.928 74.8282 325.147 72.047C322.437 69.2658 320.369 66.0923 318.943 62.5267C317.516 58.8897 316.803 55.0744 316.803 51.0809V48.6206C316.803 44.5557 317.516 40.7048 318.943 37.0678C320.44 33.3596 322.58 30.1148 325.361 27.3336C328.213 24.5524 331.636 22.3773 335.63 20.8084C339.624 19.1682 344.081 18.3481 349.001 18.3481C354.064 18.3481 358.557 19.1682 362.479 20.8084C366.473 22.3773 369.86 24.5524 372.642 27.3336C375.423 30.1148 377.562 33.3596 379.06 37.0678C380.557 40.7048 381.306 44.5557 381.306 48.6206V51.0809C381.306 55.0744 380.593 58.8897 379.167 62.5267C377.74 66.0923 375.637 69.2658 372.855 72.047C370.146 74.8282 366.794 77.0389 362.8 78.6791C358.807 80.248 354.207 81.0324 349.001 81.0324ZM349.001 66.5915C352.353 66.5915 355.134 65.8784 357.345 64.4521C359.556 63.0258 361.231 61.0291 362.372 58.4618C363.585 55.8945 364.191 53.042 364.191 49.9042C364.191 46.5525 363.585 43.6287 362.372 41.1327C361.16 38.5654 359.413 36.533 357.131 35.0354C354.92 33.5378 352.21 32.7891 349.001 32.7891C345.863 32.7891 343.154 33.5378 340.872 35.0354C338.589 36.533 336.842 38.5654 335.63 41.1327C334.489 43.6287 333.918 46.5525 333.918 49.9042C333.918 53.042 334.489 55.8945 335.63 58.4618C336.771 61.0291 338.483 63.0258 340.765 64.4521C343.047 65.8784 345.792 66.5915 349.001 66.5915ZM412.077 102.319C409.225 102.319 406.301 102.212 403.306 101.999C400.311 101.785 397.565 101.499 395.069 101.143V86.7018C397.565 87.0584 400.311 87.3436 403.306 87.5576C406.372 87.8428 409.154 87.9855 411.65 87.9855C416.285 87.9855 420.029 87.4506 422.881 86.3809C425.805 85.3112 427.945 83.671 429.3 81.4603C430.655 79.3209 431.332 76.5397 431.332 73.1167V61.457L434.434 54.6109C434.292 59.8168 433.257 64.2738 431.332 67.9821C429.478 71.6904 426.875 74.5429 423.523 76.5397C420.171 78.4652 416.178 79.4279 411.543 79.4279C407.549 79.4279 403.912 78.7147 400.632 77.2885C397.423 75.7909 394.677 73.7228 392.395 71.0842C390.113 68.4456 388.366 65.3792 387.153 61.8848C385.941 58.3192 385.335 54.4683 385.335 50.3321V47.8718C385.335 43.7356 385.977 39.8847 387.26 36.3191C388.544 32.7534 390.398 29.6513 392.823 27.0127C395.248 24.3741 398.136 22.3417 401.487 20.9154C404.839 19.4178 408.547 18.669 412.612 18.669C417.319 18.669 421.384 19.7031 424.807 21.7712C428.301 23.8393 431.047 26.8701 433.044 30.8636C435.04 34.8571 436.11 39.6708 436.253 45.3045L433.899 45.9463V20.3806H447.484V72.047C447.484 79.2496 446.201 85.0616 443.634 89.483C441.066 93.9045 437.144 97.1492 431.867 99.2173C426.661 101.285 420.065 102.319 412.077 102.319ZM416.891 64.987C419.53 64.987 421.919 64.4165 424.058 63.2754C426.197 62.0631 427.873 60.3516 429.086 58.1409C430.369 55.9302 431.011 53.2559 431.011 50.1182V47.016C431.011 43.9496 430.334 41.3823 428.979 39.3142C427.695 37.1748 425.984 35.5703 423.844 34.5006C421.705 33.3596 419.423 32.7891 416.998 32.7891C414.146 32.7891 411.614 33.4665 409.403 34.8215C407.192 36.1764 405.481 38.0662 404.269 40.4909C403.056 42.9155 402.45 45.7681 402.45 49.0485C402.45 52.4002 403.056 55.2884 404.269 57.713C405.552 60.0663 407.264 61.8848 409.403 63.1685C411.614 64.3808 414.11 64.987 416.891 64.987ZM481.131 102.319C478.279 102.319 475.355 102.212 472.36 101.999C469.365 101.785 466.619 101.499 464.123 101.143V86.7018C466.619 87.0584 469.365 87.3436 472.36 87.5576C475.426 87.8428 478.208 87.9855 480.704 87.9855C485.339 87.9855 489.083 87.4506 491.935 86.3809C494.859 85.3112 496.999 83.671 498.354 81.4603C499.709 79.3209 500.386 76.5397 500.386 73.1167V61.457L503.488 54.6109C503.346 59.8168 502.311 64.2738 500.386 67.9821C498.532 71.6904 495.929 74.5429 492.577 76.5397C489.226 78.4652 485.232 79.4279 480.597 79.4279C476.603 79.4279 472.966 78.7147 469.686 77.2885C466.477 75.7909 463.731 73.7228 461.449 71.0842C459.167 68.4456 457.42 65.3792 456.208 61.8848C454.995 58.3192 454.389 54.4683 454.389 50.3321V47.8718C454.389 43.7356 455.031 39.8847 456.314 36.3191C457.598 32.7534 459.452 29.6513 461.877 27.0127C464.302 24.3741 467.19 22.3417 470.541 20.9154C473.893 19.4178 477.601 18.669 481.666 18.669C486.373 18.669 490.438 19.7031 493.861 21.7712C497.355 23.8393 500.101 26.8701 502.098 30.8636C504.094 34.8571 505.164 39.6708 505.307 45.3045L502.953 45.9463V20.3806H516.538V72.047C516.538 79.2496 515.255 85.0616 512.688 89.483C510.12 93.9045 506.198 97.1492 500.921 99.2173C495.715 101.285 489.119 102.319 481.131 102.319ZM485.945 64.987C488.584 64.987 490.973 64.4165 493.112 63.2754C495.251 62.0631 496.927 60.3516 498.14 58.1409C499.423 55.9302 500.065 53.2559 500.065 50.1182V47.016C500.065 43.9496 499.388 41.3823 498.033 39.3142C496.749 37.1748 495.038 35.5703 492.898 34.5006C490.759 33.3596 488.477 32.7891 486.052 32.7891C483.2 32.7891 480.668 33.4665 478.457 34.8215C476.247 36.1764 474.535 38.0662 473.323 40.4909C472.11 42.9155 471.504 45.7681 471.504 49.0485C471.504 52.4002 472.11 55.2884 473.323 57.713C474.606 60.0663 476.318 61.8848 478.457 63.1685C480.668 64.3808 483.164 64.987 485.945 64.987Z" fill="#F3F3F3"/>
</svg>
